<svg viewBox="0 0 267 62" fill="none" xmlns="http://www.w3.org/2000/svg"><path d="M254 2a2 2 0 0 0-2-1l-18 19a2 2 0 0 0 2 3h13l-3 12a2 2 0 0 0 3 1l17-19a2 2 0 0 0-1-3h-13l2-12Z" fill="#FCAD56"/><path d="m0 53 5-32h22l-1 7H13l-1 6h12l-1 6H11L8 53H0Z" fill="#4E598C"/><path d="m32 53-6-1-4-5v-6l3-6 4-5 7-1 6 1 4 5v6l-2 6-5 5-7 1Zm1-6 2-1 2-2 1-3v-3l-1-2-2-1-2 1-1 2-1 3v5l2 1ZM45 53l4-24h8v5l2-4a6 6 0 0 1 5-1h1l-1 7h-3l-3 1a5 5 0 0 0-2 3l-2 13h-9ZM78 42l2-13h9l-4 24h-8l1-5h-1c0 2-1 3-3 4l-5 1-4-1-2-3v-5l2-15h9l-3 13 1 3 2 1h2l1-2 1-2ZM87 53l4-24h8l-1 5 3-4 5-1 4 1 1 4 4-4 4-1c3 0 4 1 5 2 2 2 2 3 2 6l-3 16h-8l2-14-1-2-2-1-2 1-1 2-2 14h-8l2-14v-2l-2-1h-2l-1 1-1 2-2 14h-8Z" fill="#4E598C"/><path d="M145 31v-2l-3-1h-2l-2 1v3l1 1h2l3 1 4 1 3 2 1 3v3l-2 6-5 3-7 1-7-1c-2-1-4-2-4-4l-1-6h8v2l2 2h5l2-1v-3l-1-1-3-1h-3l-6-3c-1-2-2-4-1-6l2-5 5-4a18 18 0 0 1 13 0 8 8 0 0 1 5 9h-9ZM150 61l5-32h9l-1 4a9 9 0 0 1 4-3 8 8 0 0 1 8 0l2 4 1 7-3 7-4 4-5 1-3-1a5 5 0 0 1-3-3l-2 12h-8Zm11-20v3l1 2 2 1 2-1 2-2a11 11 0 0 0 1-6l-1-2-2-1-2 1-2 2-1 3ZM183 53l-4-1-2-2v-4l1-3 2-2 3-2h3l4-1h1l1-1v-2h-4l-1 2h-8l2-4 4-3 6-1 4 1 4 1a6 6 0 0 1 2 6l-3 16h-8l1-4h-1l-2 3-2 1h-3Zm4-5a5 5 0 0 0 3-2l1-2v-2a8 8 0 0 1-1 1 16 16 0 0 1-2 0l-2 1-1 1v2l2 1ZM199 53l4-24h8v5l3-4a6 6 0 0 1 4-1h1l-1 7h-3l-2 1a5 5 0 0 0-3 3l-2 13h-9ZM224 47l2-10h1l7-8h9l-11 13h-3l-5 5Zm-9 6 6-32h8l-5 32h-9Zm15 0-4-10 7-6 7 16h-10Z" fill="#FCAF58"/></svg>