<svg width="490" height="88" viewBox="0 0 490 88" fill="none" xmlns="http://www.w3.org/2000/svg">
<g clip-path="url(#clip0_21_2)">
<path d="M102.982 33.4186V43.365H119.089V49.0062H102.982V64H96.821V27.7031H121.019L120.945 33.4186H102.982Z" fill="#464C56"/>
<path d="M145.026 32.3794C141.414 32.3794 138.37 33.666 135.896 36.2392C133.422 38.8124 132.185 41.9299 132.185 45.5918C132.185 49.2536 133.422 52.3711 135.896 54.9443C138.37 57.4681 141.414 58.7299 145.026 58.7299C148.638 58.7299 151.682 57.4681 154.156 54.9443C156.63 52.3711 157.867 49.2536 157.867 45.5918C157.867 41.9299 156.63 38.8124 154.156 36.2392C151.682 33.666 148.638 32.3794 145.026 32.3794ZM145.026 64.3711C139.583 64.3711 135.03 62.5897 131.368 59.0268C127.706 55.4144 125.875 50.9361 125.875 45.5918C125.875 40.2474 127.706 35.7938 131.368 32.2309C135.03 28.6186 139.583 26.8124 145.026 26.8124C150.469 26.8124 155.022 28.6186 158.684 32.2309C162.346 35.7938 164.177 40.2474 164.177 45.5918C164.177 50.9361 162.321 55.3897 158.609 58.9526C154.898 62.565 150.37 64.3711 145.026 64.3711Z" fill="#464C56"/>
<path d="M193.069 50.7876L202.57 64H194.777L186.092 51.7526H178.076V64H171.915V27.7031H185.424C190.917 27.7031 194.851 28.6433 197.226 30.5237C199.651 32.3546 200.863 35.3485 200.863 39.5052C200.863 45.4928 198.265 49.2536 193.069 50.7876ZM185.647 46.2598C189.061 46.2598 191.412 45.7402 192.698 44.701C193.985 43.6619 194.628 41.9052 194.628 39.4309C194.628 37.0557 193.985 35.4474 192.698 34.6062C191.412 33.7155 189.111 33.2701 185.795 33.2701H178.076V46.2598H185.647Z" fill="#464C56"/>
<path d="M224.663 58.5815C227.483 58.5815 229.71 57.6165 231.343 55.6866C233.025 53.7567 233.867 51.134 233.867 47.8186V27.7031H240.027V48.0412C240.027 53.1876 238.617 57.1959 235.797 60.066C232.976 62.9361 229.265 64.3711 224.663 64.3711C220.06 64.3711 216.349 62.9361 213.528 60.066C210.708 57.1959 209.298 53.1876 209.298 48.0412V27.7031H215.384V47.8186C215.384 51.1835 216.225 53.8062 217.908 55.6866C219.541 57.6165 221.792 58.5815 224.663 58.5815Z" fill="#464C56"/>
<path d="M255.841 64H249.68V27.7031H259.256L270.167 50.4907L281.153 27.7031H290.654V64H284.567V35.6454L271.874 60.8083H268.46L255.841 35.6454V64Z" fill="#464C56"/>
<path d="M319.9 36.833C319.9 38.367 320.469 39.4804 321.607 40.1732C322.745 41.0144 325.17 41.8804 328.881 42.7711C332.79 43.7113 335.636 44.9979 337.417 46.6309C339.248 48.2639 340.164 50.6144 340.164 53.6825C340.164 56.899 338.951 59.4969 336.527 61.4763C334.151 63.4557 331.034 64.4454 327.174 64.4454C321.582 64.4454 316.535 62.466 312.032 58.5072L315.891 53.9052C319.652 57.1217 323.463 58.7299 327.322 58.7299C329.252 58.7299 330.811 58.3093 331.999 57.4681C333.186 56.5773 333.78 55.4392 333.78 54.0536C333.78 52.668 333.236 51.5794 332.147 50.7876C331.108 49.9959 329.228 49.2784 326.506 48.6351C321.805 47.5464 318.539 46.2598 316.708 44.7753C314.58 43.1423 313.516 40.6433 313.516 37.2784C313.516 34.0124 314.704 31.4639 317.079 29.633C319.454 27.7526 322.498 26.8124 326.209 26.8124C331.207 26.8124 335.487 28.2722 339.05 31.1918L335.784 35.7938C334.696 34.8041 333.236 34.0124 331.405 33.4186C329.574 32.7753 327.768 32.4536 325.986 32.4536C324.155 32.4536 322.671 32.8495 321.533 33.6412C320.444 34.3835 319.9 35.4474 319.9 36.833Z" fill="#464C56"/>
<path d="M360.236 27.7031C365.68 27.7031 369.663 28.767 372.187 30.8949C374.76 32.9732 376.047 36.2144 376.047 40.6186C376.047 44.9732 374.76 48.1897 372.187 50.268C369.614 52.2969 365.655 53.3113 360.311 53.3113H353.927V64H347.766V27.7031H360.236ZM360.979 47.8186C364.245 47.8186 366.521 47.2 367.808 45.9629C369.144 44.7258 369.812 42.7711 369.812 40.099C369.812 37.6248 369.045 35.868 367.511 34.8289C365.977 33.7897 363.502 33.2701 360.088 33.2701H353.927V47.8186H360.979Z" fill="#464C56"/>
<path d="M388.466 55.7608L384.829 64H378.297L394.33 27.7031H400.862L416.821 64H410.289L406.652 55.7608H388.466ZM404.202 50.0454L397.596 35.1258L390.99 50.0454H404.202Z" fill="#464C56"/>
<path d="M443.03 50.7876L452.531 64H444.738L436.053 51.7526H428.037V64H421.876V27.7031H435.385C440.878 27.7031 444.812 28.6433 447.187 30.5237C449.612 32.3546 450.824 35.3485 450.824 39.5052C450.824 45.4928 448.226 49.2536 443.03 50.7876ZM435.608 46.2598C439.022 46.2598 441.373 45.7402 442.659 44.701C443.946 43.6619 444.589 41.9052 444.589 39.4309C444.589 37.0557 443.946 35.4474 442.659 34.6062C441.373 33.7155 439.072 33.2701 435.756 33.2701H428.037V46.2598H435.608Z" fill="#464C56"/>
<path d="M459.704 27.7031H465.865V45.3691L482.491 27.7031H490.211L475.663 43.5876L490.434 64H483.16L471.135 48.1155L465.865 53.8309V64H459.704V27.7031Z" fill="#464C56"/>
<path d="M23.8872 76.0098C31.6144 79.9737 40.5033 81.0474 48.952 79.0373C57.4008 77.0273 64.8539 72.0657 69.9682 65.0468C75.0825 58.0278 77.5216 49.4129 76.8462 40.7546C76.1707 32.0964 72.425 23.964 66.2841 17.8231C60.1432 11.6822 52.0108 7.93647 43.3525 7.261C34.6943 6.58554 26.0794 9.02473 19.0604 14.139C12.0414 19.2533 7.07988 26.7064 5.06984 35.1551C3.0598 43.6039 4.13346 52.4928 8.09735 60.22L0 84.1072L23.8872 76.0098Z" fill="#6087D1"/>
<path d="M21.1285 48.4663C20.6708 48.4679 20.222 48.3396 19.8344 48.0962C19.4467 47.8529 19.136 47.5045 18.9385 47.0917C18.7409 46.6788 18.6645 46.2183 18.7183 45.7638C18.772 45.3093 18.9535 44.8793 19.2419 44.5238L43.1873 19.8528C43.3669 19.6455 43.6117 19.5054 43.8814 19.4555C44.1512 19.4056 44.4298 19.4489 44.6717 19.5783C44.9136 19.7077 45.1043 19.9155 45.2126 20.1675C45.3208 20.4196 45.3401 20.7009 45.2674 20.9654L40.6234 35.5262C40.4865 35.8927 40.4405 36.2869 40.4894 36.6751C40.5383 37.0632 40.6807 37.4338 40.9042 37.7548C41.1278 38.0759 41.4259 38.338 41.773 38.5185C42.1201 38.6991 42.5058 38.7927 42.897 38.7914H59.8281C60.2858 38.7899 60.7346 38.9182 61.1223 39.1616C61.5099 39.4049 61.8206 39.7532 62.0182 40.1661C62.2157 40.579 62.2921 41.0394 62.2384 41.494C62.1847 41.9485 62.0031 42.3785 61.7147 42.734L37.7693 67.405C37.5897 67.6123 37.345 67.7524 37.0752 67.8023C36.8055 67.8522 36.5268 67.8089 36.2849 67.6795C36.043 67.5501 35.8523 67.3423 35.7441 67.0903C35.6358 66.8382 35.6165 66.5568 35.6892 66.2923L40.3332 51.7316C40.4701 51.3651 40.5161 50.9709 40.4672 50.5827C40.4183 50.1945 40.276 49.824 40.0524 49.5029C39.8288 49.1819 39.5307 48.9198 39.1836 48.7393C38.8365 48.5587 38.4508 48.4651 38.0596 48.4663H21.1285Z" fill="#FFC400"/>
</g>
<defs>
<clipPath id="clip0_21_2">
<rect width="490" height="88" fill="white"/>
</clipPath>
</defs>
</svg>
